<?xml version="1.0" encoding="utf-8"?>
<!-- Generator: Adobe Illustrator 21.1.0, SVG Export Plug-In . SVG Version: 6.00 Build 0)  -->
<svg version="1.1" id="Layer_1" xmlns="http://www.w3.org/2000/svg" xmlns:xlink="http://www.w3.org/1999/xlink" x="0px" y="0px"
	 viewBox="0 0 2000 800" style="enable-background:new 0 0 2000 800;" xml:space="preserve">
<style type="text/css">
	.st0{fill:#000D47;}
</style>
<title>logo_dark</title>
<path class="st0" d="M1208.3,274.2c-51,1.5-91,44.7-91,95.8v116.6c0,2.8,2.2,5,5,5h28.3c2.8,0,5-2.2,5-5v-117
	c0-30,22.9-55.7,52.8-57.1c30.7-1.5,56.8,22.1,58.3,52.8c0,0.9,0.1,1.8,0.1,2.8v118.6c0,2.8,2.2,5,5,5h28.3c2.8,0,5-2.2,5-5V368
	c-0.1-51.9-42.2-93.9-94.1-93.9C1210,274.1,1209.1,274.1,1208.3,274.2z M1446.8,275.2c-59.9-2.7-110.6,43.7-113.3,103.6
	c-2.7,59.9,43.7,110.6,103.6,113.3c27.5,1.2,54.4-8,75.3-25.8v20.2c0,2.8,2.2,5,5,5h28.3c2.8,0,5-2.2,5-5V385.9
	C1550.6,327.4,1505.2,277.7,1446.8,275.2z M1442.1,454c-38.8,0-70.3-31.5-70.4-70.3c0-38.8,31.5-70.3,70.3-70.4
	c38.8,0,70.3,31.5,70.4,70.3l0,0C1512.3,422.5,1480.9,453.9,1442.1,454z M1696.1,275.2c-59.9-2.7-110.6,43.7-113.3,103.6
	c-2.7,59.9,43.7,110.6,103.6,113.3c27.5,1.2,54.4-8,75.3-25.8v42.9c0,39.4-32.3,72.9-71.7,72.2c-22.3-0.4-43.1-11.4-56-29.6
	c-1.5-2.1-4.4-2.7-6.6-1.3l-24,14.9c-2.4,1.5-3.1,4.6-1.6,6.9c0,0.1,0.1,0.1,0.1,0.2c19.7,29,52.3,46.5,87.4,47.1
	c60.9,1.2,110.7-49.9,110.7-110.7V386C1799.9,327.4,1754.5,277.7,1696.1,275.2z M1691.4,454c-38.8,0-70.3-31.5-70.3-70.3
	s31.5-70.3,70.3-70.3s70.3,31.5,70.3,70.3l0,0C1761.7,422.5,1730.2,453.9,1691.4,454z M784.9,275.2C725,272.6,674.3,319,671.6,378.8
	s43.7,110.6,103.6,113.3c27.5,1.2,54.3-8,75.3-25.8v42.9c0,39.4-32.3,73-71.7,72.2c-22.3-0.4-43.1-11.4-56-29.6
	c-1.5-2.1-4.4-2.7-6.6-1.3l-24,14.9c-2.4,1.5-3.1,4.6-1.6,6.9c0,0.1,0.1,0.1,0.1,0.2c19.7,28.9,52.2,46.5,87.2,47.1
	c60.9,1.2,110.7-49.9,110.7-110.7V386C888.7,327.4,843.4,277.7,784.9,275.2z M780.2,454c-38.8,0-70.3-31.5-70.3-70.3
	s31.5-70.3,70.3-70.3s70.3,31.5,70.3,70.3l0,0C850.5,422.5,819,453.9,780.2,454z M631.2,276.6l-28.3,0.4c-2.7,0-4.9,2.2-4.9,4.9
	v112.8c0,30.7-25,55.6-55.7,55.6c-0.9,0-1.8,0-2.7-0.1c-29.9-1.5-52.8-27.2-52.8-57.1v-111c0-2.8-2.2-5-5-5l0,0h-28.3
	c-2.8,0-5,2.2-5,5v110.7c0,51,40,94.3,91,95.8c51.9,1.5,95.1-39.4,96.6-91.3c0-0.8,0-1.7,0-2.5V281.6
	C636.2,278.8,634,276.6,631.2,276.6L631.2,276.6z M1010.3,365.4c-27.7-7.7-44.5-13.4-44.5-28.4c0-21.7,23.7-29.6,39.7-29.6
	c18.2,0,29.2,4.2,43.5,13c2.3,1.4,5.3,0.7,6.8-1.6l13.1-20.4c1.5-2.3,0.8-5.4-1.5-6.9c-0.1,0-0.1-0.1-0.2-0.1
	c-19-11.5-40.8-17.5-63.1-17.5c-36,0-73.1,23.7-73.1,63.4c0,40.5,36,50.2,67.7,58.8c30,8.1,48.2,14.4,48.2,33.3
	c0,17.4-17.8,30.5-41.5,30.5c-22.8,0-41.4-10.3-54-20c-2.1-1.7-5.2-1.3-6.9,0.8l-15.6,19c-1.7,2.1-1.4,5.3,0.7,7
	c20.5,17.2,47.8,26.6,77.4,26.6c43.1,0,74.4-27.4,74.4-65.1C1081.6,385.3,1042,374.3,1010.3,365.4z M321.3,275.8
	c-30-3.5-60.1,5.6-83,25.2V185.3c0-2.8-2.2-5-5-5c-0.9,0-1.8,0.3-2.6,0.7l-28.3,17.2c-1.5,0.9-2.4,2.5-2.4,4.3v178.9
	c0,58.5,45.4,108.2,103.8,110.7c59.9,2.5,110.5-44,113.1-103.9C419.3,331.5,377.6,282.6,321.3,275.8z M308.6,454
	c-38.8,0-70.3-31.5-70.3-70.3s31.5-70.3,70.3-70.3s70.3,31.5,70.3,70.3C378.8,422.5,347.4,453.9,308.6,454z"/>
</svg>
