<?xml version="1.0" encoding="UTF-8"?> <svg xmlns="http://www.w3.org/2000/svg" id="Layer_1" viewBox="0 0 387.99 108.389"><defs><style>.cls-1{fill:#84a7ff;}.cls-2{fill:#173647;}</style></defs><g><path class="cls-2" d="M122.723,41.618h13.713c6.441,0,11.101,.963,13.979,2.889,2.877,1.926,4.316,4.97,4.316,9.131,0,2.878-.803,5.252-2.407,7.122-1.605,1.871-3.946,3.083-7.022,3.636v.332c7.371,1.262,11.057,5.136,11.057,11.621,0,4.339-1.467,7.726-4.399,10.16-2.933,2.435-7.034,3.652-12.302,3.652h-16.934V41.618Zm5.645,20.785h9.297c3.984,0,6.851-.625,8.6-1.876,1.749-1.25,2.623-3.359,2.623-6.325,0-2.723-.974-4.687-2.922-5.894-1.948-1.206-5.047-1.81-9.297-1.81h-8.301v15.904Zm0,4.781v18.162h10.127c3.918,0,6.867-.758,8.849-2.274,1.981-1.516,2.972-3.89,2.972-7.122,0-3.01-1.013-5.224-3.038-6.641-2.025-1.417-5.108-2.125-9.247-2.125h-9.662Z"></path><path class="cls-2" d="M170.535,53.77v23.607c0,2.966,.675,5.18,2.025,6.641,1.35,1.461,3.464,2.191,6.342,2.191,3.807,0,6.591-1.04,8.351-3.121,1.76-2.081,2.64-5.479,2.64-10.193v-19.125h5.512v36.391h-4.549l-.797-4.881h-.299c-1.129,1.793-2.695,3.166-4.698,4.117-2.003,.952-4.289,1.428-6.856,1.428-4.427,0-7.742-1.051-9.944-3.154-2.203-2.103-3.304-5.467-3.304-10.094v-23.807h5.578Z"></path><path class="cls-2" d="M235.787,53.77v3.486l-6.74,.797c.619,.775,1.173,1.788,1.66,3.038,.486,1.251,.73,2.662,.73,4.233,0,3.564-1.218,6.408-3.652,8.533-2.436,2.125-5.777,3.188-10.027,3.188-1.085,0-2.104-.088-3.055-.266-2.347,1.24-3.52,2.8-3.52,4.682,0,.996,.409,1.732,1.229,2.208,.818,.476,2.225,.714,4.217,.714h6.441c3.939,0,6.967,.83,9.081,2.49,2.113,1.66,3.171,4.073,3.171,7.238,0,4.028-1.616,7.1-4.848,9.214-3.232,2.114-7.947,3.171-14.145,3.171-4.76,0-8.429-.886-11.007-2.656-2.579-1.771-3.868-4.272-3.868-7.504,0-2.214,.708-4.128,2.125-5.744,1.416-1.616,3.408-2.711,5.977-3.287-.93-.42-1.71-1.073-2.341-1.959-.631-.885-.946-1.915-.946-3.088,0-1.328,.354-2.49,1.062-3.486,.708-.996,1.826-1.959,3.354-2.889-1.882-.774-3.415-2.092-4.599-3.951-1.185-1.859-1.776-3.984-1.776-6.375,0-3.984,1.195-7.056,3.586-9.214s5.777-3.237,10.16-3.237c1.903,0,3.619,.222,5.146,.664h12.584Zm-29.02,42.5c0,1.97,.83,3.464,2.49,4.482,1.66,1.018,4.039,1.527,7.139,1.527,4.626,0,8.052-.692,10.276-2.075,2.225-1.384,3.337-3.26,3.337-5.628,0-1.97-.609-3.337-1.826-4.101-1.218-.764-3.509-1.146-6.873-1.146h-6.607c-2.502,0-4.449,.598-5.844,1.793s-2.092,2.911-2.092,5.146Zm2.988-30.846c0,2.546,.719,4.472,2.158,5.777,1.438,1.306,3.441,1.959,6.01,1.959,5.379,0,8.068-2.612,8.068-7.836,0-5.467-2.723-8.201-8.168-8.201-2.59,0-4.582,.697-5.977,2.092s-2.092,3.464-2.092,6.209Z"></path><path class="cls-2" d="M271.969,77.245c0,4.272-1.55,7.604-4.648,9.994-3.1,2.391-7.305,3.586-12.617,3.586-5.756,0-10.183-.741-13.281-2.225v-5.445c1.992,.841,4.161,1.505,6.508,1.992,2.346,.487,4.67,.73,6.973,.73,3.763,0,6.596-.714,8.5-2.142,1.903-1.428,2.855-3.414,2.855-5.96,0-1.682-.338-3.06-1.013-4.134-.676-1.073-1.805-2.064-3.387-2.972-1.583-.907-3.99-1.937-7.222-3.088-4.516-1.616-7.742-3.53-9.679-5.744-1.938-2.213-2.905-5.102-2.905-8.666,0-3.741,1.405-6.718,4.217-8.932,2.811-2.213,6.529-3.32,11.156-3.32,4.825,0,9.264,.886,13.314,2.656l-1.76,4.914c-4.007-1.682-7.902-2.523-11.688-2.523-2.988,0-5.324,.642-7.006,1.926-1.683,1.284-2.523,3.066-2.523,5.346,0,1.683,.31,3.061,.93,4.134,.619,1.074,1.665,2.059,3.138,2.955,1.472,.896,3.724,1.887,6.757,2.972,5.091,1.815,8.594,3.763,10.509,5.844,1.914,2.081,2.872,4.781,2.872,8.102Z"></path><path class="cls-2" d="M304.861,90.161v-23.541c0-2.966-.676-5.18-2.025-6.641-1.351-1.461-3.465-2.191-6.342-2.191-3.808,0-6.597,1.029-8.367,3.088-1.771,2.059-2.656,5.457-2.656,10.193v19.092h-5.512V53.77h4.482l.896,4.98h.266c1.129-1.793,2.711-3.182,4.748-4.167,2.036-.985,4.305-1.478,6.807-1.478,4.383,0,7.681,1.057,9.895,3.171,2.213,2.114,3.32,5.495,3.32,10.144v23.74h-5.512Z"></path><path class="cls-2" d="M342.932,90.161l-1.096-5.18h-.266c-1.815,2.28-3.625,3.824-5.429,4.632-1.805,.808-4.057,1.212-6.757,1.212-3.608,0-6.437-.93-8.483-2.789-2.048-1.859-3.071-4.504-3.071-7.936,0-7.349,5.877-11.2,17.631-11.555l6.176-.199v-2.258c0-2.855-.614-4.964-1.843-6.325s-3.193-2.042-5.894-2.042c-3.033,0-6.464,.93-10.293,2.789l-1.693-4.217c1.793-.974,3.757-1.737,5.894-2.291,2.136-.553,4.277-.83,6.425-.83,4.338,0,7.554,.963,9.646,2.889s3.138,5.014,3.138,9.264v24.836h-4.084Zm-12.451-3.885c3.431,0,6.126-.94,8.085-2.822,1.959-1.881,2.938-4.516,2.938-7.902v-3.287l-5.512,.232c-4.383,.155-7.543,.836-9.479,2.042-1.938,1.207-2.905,3.083-2.905,5.628,0,1.992,.603,3.509,1.81,4.549,1.206,1.041,2.894,1.561,5.063,1.561Z"></path><path class="cls-2" d="M387.086,53.77v3.486l-6.74,.797c.619,.775,1.173,1.788,1.66,3.038,.486,1.251,.73,2.662,.73,4.233,0,3.564-1.218,6.408-3.652,8.533-2.436,2.125-5.777,3.188-10.027,3.188-1.085,0-2.104-.088-3.055-.266-2.347,1.24-3.52,2.8-3.52,4.682,0,.996,.409,1.732,1.229,2.208,.818,.476,2.225,.714,4.217,.714h6.441c3.939,0,6.967,.83,9.081,2.49,2.113,1.66,3.171,4.073,3.171,7.238,0,4.028-1.616,7.1-4.848,9.214-3.232,2.114-7.947,3.171-14.145,3.171-4.76,0-8.429-.886-11.007-2.656-2.579-1.771-3.868-4.272-3.868-7.504,0-2.214,.708-4.128,2.125-5.744,1.416-1.616,3.408-2.711,5.977-3.287-.93-.42-1.71-1.073-2.341-1.959-.631-.885-.946-1.915-.946-3.088,0-1.328,.354-2.49,1.062-3.486,.708-.996,1.826-1.959,3.354-2.889-1.882-.774-3.415-2.092-4.599-3.951-1.185-1.859-1.776-3.984-1.776-6.375,0-3.984,1.195-7.056,3.586-9.214s5.777-3.237,10.16-3.237c1.903,0,3.619,.222,5.146,.664h12.584Zm-29.02,42.5c0,1.97,.83,3.464,2.49,4.482,1.66,1.018,4.039,1.527,7.139,1.527,4.626,0,8.052-.692,10.276-2.075,2.225-1.384,3.337-3.26,3.337-5.628,0-1.97-.609-3.337-1.826-4.101-1.218-.764-3.509-1.146-6.873-1.146h-6.607c-2.502,0-4.449,.598-5.844,1.793s-2.092,2.911-2.092,5.146Zm2.988-30.846c0,2.546,.719,4.472,2.158,5.777,1.438,1.306,3.441,1.959,6.01,1.959,5.379,0,8.068-2.612,8.068-7.836,0-5.467-2.723-8.201-8.168-8.201-2.59,0-4.582,.697-5.977,2.092s-2.092,3.464-2.092,6.209Z"></path></g><g><g><rect class="cls-1" x="2.497" y="2.497" width="89.974" height="89.987"></rect><path class="cls-2" d="M89.974,4.994V89.987H4.994V4.994H89.974m4.994-4.994H0V94.98H94.968V0h0Z"></path></g><g><circle class="cls-2" cx="48.525" cy="57.099" r="3.575"></circle><path class="cls-2" d="M46.629,33.871h1.961c13.207,.018,22.529,8.701,23.658,20.548,1.296,13.59-8.779,25.845-23.217,25.729h0c-15.481,0-24.28-10.912-24.294-23.49v-12.996h9.899l-.027-23.482-5.234,2.619v16.001h-4.485V19.52l10.597-6.135,3.577,2.087,.029,28.188h8.524c10.214-.074,14.297,6.637,14.388,13.554,.123,9.331-9.822,16.206-19.766,11.54-4.379-2.054-7.735-7.194-7.735-12.031v-.068s-.012-8.404-.012-8.404h-5.434v7.571c-.246,9.126,6.59,18.692,18.131,19.658,11.581,.97,20.582-7.294,20.582-18.635,0-10.713-7.49-18.17-18.203-18.17h-2.94m-7.486,9.576v8.402c-.001,5.305,4.421,9.398,9.726,9.4,5.305,.001,8.84-4.42,8.717-8.717,.001-5.305-3.985-9.084-9.289-9.085h-9.153Z"></path></g></g><g><path class="cls-2" d="M135.083,8.201s-4.395-.501-6.215-.501c-2.637,0-3.987,.942-3.987,2.794,0,2.009,1.13,2.479,4.803,3.484,4.52,1.255,6.152,2.448,6.152,6.121,0,4.708-2.95,6.748-7.188,6.748-2.794,0-7.031-.848-7.031-.848l.345-2.794s4.237,.566,6.466,.566c2.668,0,3.892-1.193,3.892-3.453,0-1.821-.973-2.448-4.269-3.233-4.645-1.192-6.654-2.605-6.654-6.34,0-4.332,2.857-6.121,7.157-6.121,2.731,0,6.811,.753,6.811,.753l-.282,2.825Z"></path><path class="cls-2" d="M144.193,5h6.059l4.803,16.793,4.803-16.793h6.089V26.501h-3.515V7.919h-.185l-5.371,17.704h-3.641l-5.371-17.704h-.185V26.501h-3.484V5Z"></path><path class="cls-2" d="M219.91,5h15.694v3.107h-6.058V26.501h-3.515V8.107h-6.121v-3.107Z"></path><path class="cls-2" d="M250.766,5c4.269,0,6.56,1.601,6.56,5.587,0,2.605-.816,3.892-2.542,4.834,1.852,.722,3.076,2.04,3.076,4.991,0,4.395-2.668,6.09-6.842,6.09h-8.413V5h8.162Zm-4.677,3.013v6.153h4.614c2.135,0,3.076-1.067,3.076-3.171,0-2.071-1.067-2.982-3.201-2.982h-4.489Zm0,9.104v6.372h4.74c2.165,0,3.452-.691,3.452-3.265,0-2.448-1.821-3.107-3.515-3.107h-4.677Z"></path><path class="cls-2" d="M266.497,5h13.561v3.045h-10.076v6.089h8.193v2.983h-8.193v6.309h10.076v3.076h-13.561V5Z"></path><path class="cls-2" d="M292.551,5h6.937l5.336,21.501h-3.515l-1.588-6.309h-7.403l-1.587,6.309h-3.484l5.305-21.501Zm.463,12.116h6.032l-2.225-9.198h-1.569l-2.237,9.198Z"></path><path class="cls-2" d="M316.063,20.129v6.372h-3.484V5h8.162c4.739,0,7.282,2.716,7.282,7.486,0,3.045-1.224,5.791-3.515,6.858l3.547,7.157h-3.83l-3.108-6.372h-5.054Zm4.677-12.116h-4.677v9.104h4.74c2.636,0,3.64-2.37,3.64-4.598,0-2.449-1.192-4.505-3.704-4.505Z"></path><path class="cls-2" d="M178.849,5h6.937l5.336,21.501h-3.515l-1.588-6.309h-7.403l-1.587,6.309h-3.484l5.305-21.501Zm.463,12.116h6.032l-2.225-9.198h-1.569l-2.237,9.198Z"></path><path class="cls-2" d="M202.361,20.129v6.372h-3.484V5h8.162c4.739,0,7.282,2.716,7.282,7.486,0,3.045-1.224,5.791-3.515,6.858l3.547,7.157h-3.83l-3.108-6.372h-5.054Zm4.677-12.116h-4.677v9.104h4.74c2.636,0,3.64-2.37,3.64-4.598,0-2.449-1.192-4.505-3.704-4.505Z"></path></g></svg> 